<svg id="Layer_1" height="512" viewBox="0 0 512 512" width="512" xmlns="http://www.w3.org/2000/svg"><g><g><path d="m480 160c0-61.856-50.144-112-112-112h-224c-61.856 0-112 50.144-112 112 0 21.947 6.313 42.42 17.222 59.701l150.159 237.885h.001c8.501 13.468 23.514 22.414 40.618 22.414h32c17.104 0 32.117-8.946 40.618-22.414h.001l150.159-237.885c10.909-17.281 17.222-37.754 17.222-59.701z" fill="#f06423"/></g><g><path d="m448 160c0-61.856-50.144-112-112-112-40.741 0-151.259 0-192 0-61.856 0-112 50.144-112 112 0 21.947 6.313 42.42 17.222 59.701l150.159 237.885h.001c8.501 13.468 23.514 22.414 40.618 22.414s32.117-8.946 40.618-22.414h.001l150.159-237.885c10.909-17.281 17.222-37.754 17.222-59.701z" fill="#faa019"/></g><path d="m291.563 137.812-34.688-23.125c-4.91-3.272-11.221-3.578-16.425-.794-5.202 2.785-8.45 8.206-8.45 14.107v114.752c-5.008-1.776-10.391-2.752-16-2.752-26.468 0-48 21.533-48 48s21.532 48 48 48 48-21.533 48-48v-98.104l9.813 6.542c3.874 2.583 6.187 6.905 6.187 11.562 0 8.836 7.163 16 16 16s16-7.164 16-16v-32c0-15.38-7.64-29.656-20.437-38.188z" fill="#d7e6f0"/></g></svg>